<?xml version="1.0" encoding="utf-8"?>
<svg xmlns="http://www.w3.org/2000/svg" xmlns:xlink="http://www.w3.org/1999/xlink" x="0px" y="0px" version="1.1" viewBox="0 0 20.5 31.3">
    <path fill="#fff" d="M19.3,13.5c0.7,0.5,1.1,1.1,1.1,1.8v0.3c0,0.5-0.2,1.3-1.1,1.9l0,0c-0.4,0.3-4.6,3.2-9,6.2c-4.3,3-9.2,6.4-9.8,6.8v0.5
	l-0.3-0.5c0,0,0,0,0-0.1h0v-2.5c0-0.9,0.1-1.3,1.1-1.9c0.8-0.5,13.6-9.4,15.3-10.5C14.9,14.4,2.3,5.7,1.4,5.1L1.3,5
	C0.7,4.5,0.2,4.2,0.2,3.2v-3l0.2,0.2C1.2,0.9,18.8,13.2,19.3,13.5L19.3,13.5z M8.3,17c-0.4,0-0.9-0.2-1.3-0.5
	c-1.1-0.7-6.8-4.7-6.8-4.7l-0.1,0V9.8c0-0.4,0.2-0.8,0.5-1C1,8.7,1.4,8.7,1.8,9c0.9,0.5,9.1,6.3,9.2,6.3l0.2,0.1L11,15.6
	c0,0-0.6,0.4-1.2,0.8C9.3,16.8,8.8,17,8.3,17z"/>
</svg>
